<?xml version="1.0" encoding="UTF-8" standalone="no"?>
<!-- Created with Inkscape (http://www.inkscape.org/) -->

<svg
   width="210mm"
   height="297mm"
   viewBox="0 0 210 297"
   version="1.1"
   id="svg5"
   inkscape:version="1.2.1 (9c6d41e410, 2022-07-14)"
   sodipodi:docname="logo.svg"
   xmlns:inkscape="http://www.inkscape.org/namespaces/inkscape"
   xmlns:sodipodi="http://sodipodi.sourceforge.net/DTD/sodipodi-0.dtd"
   xmlns="http://www.w3.org/2000/svg"
   xmlns:svg="http://www.w3.org/2000/svg">
  <sodipodi:namedview
     id="namedview7"
     pagecolor="#ffffff"
     bordercolor="#000000"
     borderopacity="0.25"
     inkscape:showpageshadow="2"
     inkscape:pageopacity="0.0"
     inkscape:pagecheckerboard="0"
     inkscape:deskcolor="#d1d1d1"
     inkscape:document-units="mm"
     showgrid="false"
     inkscape:zoom="1.0255231"
     inkscape:cx="447.08892"
     inkscape:cy="417.83555"
     inkscape:window-width="1920"
     inkscape:window-height="1001"
     inkscape:window-x="-9"
     inkscape:window-y="-9"
     inkscape:window-maximized="1"
     inkscape:current-layer="layer1" />
  <defs
     id="defs2" />
  <g
     inkscape:label="Слой 1"
     inkscape:groupmode="layer"
     id="layer1">
    <circle
       style="fill:#000000;stroke-width:0.264583"
       id="path122"
       cx="106.81134"
       cy="81.269493"
       r="57.533649" />
    <path
       style="fill:#ffffff;fill-opacity:1;stroke:#ffffff;stroke-width:0.465;stroke-linecap:square;stroke-linejoin:bevel;stroke-dasharray:none;stroke-opacity:1;paint-order:markers fill stroke"
       d="m 77.399527,116.09928 1.805986,-56.501645 25.541837,55.727655 27.60584,-56.243652 -0.516,57.533642 z"
       id="path3540"
       sodipodi:nodetypes="cccccc" />
    <path
       style="fill:#ffffff;fill-opacity:1;stroke:#ffffff;stroke-width:2;stroke-linecap:square;stroke-linejoin:bevel;stroke-dasharray:none;stroke-opacity:1;paint-order:markers fill stroke"
       id="path3609"
       d="m 106.78566,87.130185 c -0.0139,-0.558975 0.004,-1.119643 -0.0417,-1.676927 -0.0754,-0.921207 -0.20209,-1.837623 -0.32121,-2.754209 -0.56925,-4.380299 -1.47309,-8.692004 -2.3649,-13.015055 -0.78239,-3.24045 -1.76126,-6.42797 -2.6978,-9.625743 -0.28129,-0.96045 -0.60291,-1.910119 -0.84126,-2.882114 -0.62894,-2.564712 -0.575724,-2.938028 -0.816474,-5.476401 0.106633,-0.787204 0.08373,-1.603137 0.319904,-2.361613 0.23428,-0.752422 0.63996,-1.448025 1.07162,-2.107342 1.87842,-2.869145 4.9359,-4.171778 7.94744,-5.491877 1.15248,-0.532823 2.39725,-0.806545 3.57883,-1.256403 0.36582,-0.139277 0.89789,-0.131795 1.07027,-0.483225 0.15443,-0.314819 -0.0645,-0.784328 -0.34591,-0.993465 -3.293,-2.446864 -3.62484,-2.377615 -6.56835,-3.261728 -2.04407,-0.551156 -4.16997,-0.670171 -6.22669,-1.153668 -0.24204,-0.0569 -0.915016,-0.372531 -0.708001,-0.234812 3.796491,2.525622 2.408011,2.274697 5.362161,2.162244 2.5226,-0.03239 5.04566,-0.02117 7.56809,0.01979 0.74956,0.01217 1.50107,-0.01005 2.24848,0.04798 0.55749,0.04328 2.10034,0.597352 1.65796,0.255341 -0.72936,-0.563888 -1.72555,-0.649758 -2.58833,-0.974638 -0.0366,0.58995 -0.008,1.187596 -0.10977,1.769849 -0.23149,1.324311 -1.14378,4.060356 -1.50945,5.236977 -1.23234,3.989451 -0.62651,2.037209 -1.81684,5.85692 0,0 3.05651,1.672531 3.05651,1.672531 v 0 c 0.76486,-2.591183 0.93253,-3.238561 1.8042,-5.854297 0.47451,-1.423909 1.3356,-3.692697 1.71446,-5.20581 0.16156,-0.645271 0.23623,-1.30924 0.35434,-1.963862 -1.29328,-0.919088 -2.4794,-2.011568 -3.87984,-2.757262 -0.43156,-0.229796 -3.6476,-0.166312 -3.793,-0.167249 -2.56541,-0.01651 -5.13038,-0.06402 -7.69552,-0.101965 -0.61973,-0.0063 -2.0364,-0.612899 -1.85921,-0.019 0.73611,2.467237 2.83044,2.430129 4.64918,2.719224 2.79535,0.44433 1.82585,0.272957 4.63805,0.91582 2.92104,1.025248 2.43609,1.032206 0.17126,-0.486293 -0.22738,-0.15245 0.77872,0.160523 0.7035,0.423741 -0.0999,0.349514 -0.63425,0.358177 -0.96806,0.502065 -1.14421,0.493197 -2.36392,0.799399 -3.48328,1.356064 -2.29238,1.054957 -4.73143,2.067234 -6.582857,3.849465 -0.978881,0.942295 -2.218991,2.760818 -2.623534,4.060325 -0.245104,0.787344 -0.215685,1.635064 -0.32353,2.452597 0.249873,2.379361 0.255225,3.180117 0.84572,5.563931 0.242464,0.978831 0.578315,1.932138 0.870709,2.89723 0.964906,3.184813 1.951202,6.365182 2.720622,9.605047 0.70639,3.274541 1.42078,6.550811 1.91121,9.866775 0.25589,1.730132 0.51834,3.928089 0.5524,5.703152 0.0101,0.52701 -0.0591,1.05256 -0.0886,1.578843 0,0 3.43716,1.789044 3.43716,1.789044 z" />
  </g>
</svg>
